# xmcd
#
# Track frame offsets:
#	150
#	23085
#	47547
#	74247
#	101947
#	123345
#	141817
#	163212
#	181547
#	200560
#	223300
#
# Disc length: 3255 seconds
#
# Revision: 1
# Processed by: cddbd v1.4PL0 Copyright (c) Steve Scherf et al.
# Submitted via: EasyCDDAExtractor 5.1.0
#
DISCID=a90cb50b
DTITLE=Jean-Marc Volcy - Gou Kreol
DYEAR=1900
DGENRE=Country
TTITLE0=Eugeina
TTITLE1=Gou kreol
TTITLE2=Souvenir
TTITLE3=Lou lou moulaka
TTITLE4=Koupaye
TTITLE5=Pere irene
TTITLE6=Lassasen
TTITLE7=Mwan si mon ti ou
TTITLE8=Pake cet homme
TTITLE9=Kote tou inn ale
TTITLE10=Vendredi sen
EXTD=
EXTT0=
EXTT1=
EXTT2=
EXTT3=
EXTT4=
EXTT5=
EXTT6=
EXTT7=
EXTT8=
EXTT9=
EXTT10=
PLAYORDER=
